<svg width="282" height="154" viewBox="0 0 282 154" fill="none" xmlns="http://www.w3.org/2000/svg">
<path d="M217.331 90.0977C215.36 90.0977 213.549 89.5436 211.897 88.4354C210.246 87.3031 208.932 85.7493 207.957 83.7738C207.002 81.7742 206.524 79.5217 206.524 77.0162C206.524 74.5107 207.002 72.2702 207.957 70.2947C208.932 68.2951 210.246 66.7413 211.897 65.6331C213.549 64.5249 215.36 63.9708 217.331 63.9708C219.321 63.9708 221.132 64.5249 222.764 65.6331C224.416 66.7413 225.719 68.2951 226.675 70.2947C227.63 72.2702 228.108 74.5107 228.108 77.0162C228.108 79.5217 227.63 81.7742 226.675 83.7738C225.719 85.7493 224.416 87.3031 222.764 88.4354C221.112 89.5436 219.301 90.0977 217.331 90.0977ZM217.331 83.5208C218.823 83.5208 219.998 82.9306 220.853 81.7501C221.729 80.5696 222.167 78.9917 222.167 77.0162C222.167 74.9925 221.729 73.4025 220.853 72.2461C219.998 71.0656 218.823 70.4754 217.331 70.4754C215.818 70.4754 214.634 71.0656 213.778 72.2461C212.922 73.4025 212.495 74.9925 212.495 77.0162C212.495 79.0158 212.922 80.6058 213.778 81.7862C214.634 82.9426 215.818 83.5208 217.331 83.5208Z" fill="black"/>
<path d="M239.783 75.4623H237.156V89.8448H231.275V75.4623H229.454V69.572H231.275V69.3913C231.275 66.7894 231.902 64.8019 233.156 63.4287C234.43 62.0314 236.251 61.3328 238.619 61.3328C239.097 61.3328 239.465 61.3448 239.724 61.3689V67.4038C239.565 67.3797 239.346 67.3676 239.067 67.3676C238.43 67.3676 237.962 67.5483 237.664 67.9097C237.365 68.247 237.196 68.801 237.156 69.572H239.783V75.4623Z" fill="black"/>
<path d="M1.57373 75.886C1.57373 73.1565 2.05537 70.7288 3.01864 68.6029C4.00432 66.4508 5.39323 64.7842 7.18537 63.6032C8.97751 62.3959 11.0385 61.7922 13.3683 61.7922C16.3253 61.7922 18.8119 62.7239 20.828 64.5874C22.8442 66.4245 24.1435 68.931 24.7259 72.1067H17.6358C17.2102 71.0568 16.6165 70.2564 15.8548 69.7052C15.1156 69.1541 14.2531 68.8785 13.2674 68.8785C11.7441 68.8785 10.5232 69.5215 9.60476 70.8075C8.70869 72.0673 8.26065 73.7601 8.26065 75.886C8.26065 78.0381 8.70869 79.7572 9.60476 81.0432C10.5232 82.303 11.7441 82.9329 13.2674 82.9329C14.2531 82.9329 15.1156 82.6573 15.8548 82.1062C16.6165 81.555 17.2102 80.7545 17.6358 79.7047H24.7259C24.1435 82.8804 22.8442 85.4 20.828 87.2634C18.8119 89.1006 16.3253 90.0192 13.3683 90.0192C11.0385 90.0192 8.97751 89.4286 7.18537 88.2476C5.39323 87.0403 4.00432 85.3737 3.01864 83.2478C2.05537 81.0957 1.57373 78.6418 1.57373 75.886Z" fill="black"/>
<path d="M36.615 90.0979C34.7332 90.0979 33.0419 89.6386 31.541 88.72C30.0625 87.8014 28.8976 86.4891 28.0463 84.7832C27.195 83.0772 26.7694 81.0695 26.7694 78.7599C26.7694 76.4765 27.195 74.4819 28.0463 72.7759C28.92 71.07 30.0961 69.7577 31.5746 68.8391C33.0755 67.9205 34.7668 67.4612 36.6486 67.4612C38.5303 67.4612 40.2104 67.9205 41.689 68.8391C43.1899 69.7577 44.366 71.07 45.2172 72.7759C46.0909 74.4819 46.5277 76.4765 46.5277 78.7599C46.5277 81.0432 46.0909 83.051 45.2172 84.7832C44.366 86.4891 43.1899 87.8014 41.689 88.72C40.188 89.6386 38.4967 90.0979 36.615 90.0979ZM36.615 83.4053C37.5334 83.4053 38.2951 83.0116 38.8999 82.2243C39.5272 81.4107 39.8408 80.2559 39.8408 78.7599C39.8408 77.2639 39.5272 76.1222 38.8999 75.3349C38.2951 74.5475 37.5446 74.1538 36.6486 74.1538C35.7525 74.1538 35.002 74.5475 34.3972 75.3349C33.7923 76.1222 33.4899 77.2639 33.4899 78.7599C33.4899 80.2821 33.7811 81.4369 34.3636 82.2243C34.946 83.0116 35.6965 83.4053 36.615 83.4053Z" fill="black"/>
<path d="M55.7934 60.6899V89.8223H49.2073V60.6899H55.7934Z" fill="black"/>
<path d="M66.1301 60.6899V89.8223H59.544V60.6899H66.1301Z" fill="black"/>
<path d="M87.8918 78.5237C87.8918 79.1273 87.8582 79.731 87.791 80.3346H75.3244C75.3916 81.5419 75.6716 82.4474 76.1645 83.051C76.6797 83.6284 77.3294 83.9171 78.1134 83.9171C79.2111 83.9171 79.9952 83.3397 80.4656 82.1849H87.4886C87.1973 83.7071 86.6261 85.0719 85.7748 86.2792C84.9459 87.4602 83.8931 88.3919 82.6162 89.0743C81.3393 89.7567 79.928 90.0979 78.3822 90.0979C76.5229 90.0979 74.8652 89.6386 73.409 88.72C71.9753 87.8014 70.844 86.4891 70.0152 84.7832C69.2087 83.0772 68.8055 81.0695 68.8055 78.7599C68.8055 76.4503 69.2087 74.4556 70.0152 72.7759C70.8216 71.07 71.9417 69.7577 73.3754 68.8391C74.8316 67.9205 76.5005 67.4612 78.3822 67.4612C80.2416 67.4612 81.8881 67.9074 83.3218 68.7997C84.7555 69.6921 85.8756 70.9781 86.6821 72.6578C87.4885 74.3113 87.8918 76.2666 87.8918 78.5237ZM81.1713 76.5946C81.1713 75.6498 80.9024 74.9149 80.3648 74.39C79.8272 73.8389 79.1551 73.5633 78.3486 73.5633C77.5422 73.5633 76.8813 73.8257 76.3661 74.3506C75.8508 74.8493 75.5148 75.5973 75.358 76.5946H81.1713Z" fill="black"/>
<path d="M89.5118 78.7599C89.5118 76.4765 89.915 74.4819 90.7215 72.7759C91.5279 71.07 92.648 69.7577 94.0817 68.8391C95.5379 67.9205 97.1956 67.4612 99.0549 67.4612C101.452 67.4612 103.468 68.2355 105.103 69.7839C106.739 71.3062 107.792 73.4452 108.262 76.2009H101.273C100.869 74.7575 100.085 74.0357 98.9205 74.0357C98.0917 74.0357 97.4308 74.4425 96.938 75.2561C96.4675 76.0435 96.2323 77.2114 96.2323 78.7599C96.2323 80.3084 96.4675 81.4894 96.938 82.303C97.4308 83.1166 98.0917 83.5234 98.9205 83.5234C100.108 83.5234 100.892 82.8017 101.273 81.3582H108.262C107.792 84.0877 106.739 86.2267 105.103 87.7752C103.468 89.3237 101.452 90.0979 99.0549 90.0979C97.1956 90.0979 95.5379 89.6386 94.0817 88.72C92.648 87.8014 91.5279 86.4891 90.7215 84.7832C89.915 83.0772 89.5118 81.0695 89.5118 78.7599Z" fill="black"/>
<path d="M122.121 83.2478V89.8223H119.264C114.448 89.8223 112.04 87.0272 112.04 81.4369V74.1538H109.721V67.7368H112.04V62.3827H118.659V67.7368H122.087V74.1538H118.659V81.555C118.659 82.1587 118.771 82.5917 118.995 82.8542C119.242 83.1166 119.645 83.2478 120.205 83.2478H122.121Z" fill="black"/>
<path d="M128.468 65.6897C127.303 65.6897 126.362 65.3222 125.645 64.5874C124.951 63.8262 124.604 62.8814 124.604 61.7529C124.604 60.5981 124.951 59.6401 125.645 58.879C126.362 58.1179 127.303 57.7373 128.468 57.7373C129.61 57.7373 130.529 58.1179 131.223 58.879C131.94 59.6401 132.299 60.5981 132.299 61.7529C132.299 62.8814 131.94 63.8262 131.223 64.5874C130.529 65.3222 129.61 65.6897 128.468 65.6897ZM131.727 67.7368V89.8223H125.141V67.7368H131.727Z" fill="black"/>
<path d="M144.248 90.0979C142.367 90.0979 140.675 89.6386 139.174 88.72C137.696 87.8014 136.531 86.4891 135.68 84.7832C134.828 83.0772 134.403 81.0695 134.403 78.7599C134.403 76.4765 134.828 74.4819 135.68 72.7759C136.553 71.07 137.729 69.7577 139.208 68.8391C140.709 67.9205 142.4 67.4612 144.282 67.4612C146.164 67.4612 147.844 67.9205 149.322 68.8391C150.823 69.7577 151.999 71.07 152.851 72.7759C153.724 74.4819 154.161 76.4765 154.161 78.7599C154.161 81.0432 153.724 83.051 152.851 84.7832C151.999 86.4891 150.823 87.8014 149.322 88.72C147.821 89.6386 146.13 90.0979 144.248 90.0979ZM144.248 83.4053C145.167 83.4053 145.928 83.0116 146.533 82.2243C147.161 81.4107 147.474 80.2559 147.474 78.7599C147.474 77.2639 147.161 76.1222 146.533 75.3349C145.928 74.5475 145.178 74.1538 144.282 74.1538C143.386 74.1538 142.635 74.5475 142.031 75.3349C141.426 76.1222 141.123 77.2639 141.123 78.7599C141.123 80.2821 141.415 81.4369 141.997 82.2243C142.579 83.0116 143.33 83.4053 144.248 83.4053Z" fill="black"/>
<path d="M169.173 67.54C171.346 67.54 173.071 68.3929 174.348 70.0989C175.625 71.7786 176.263 74.0619 176.263 76.9489V89.8223H169.677V77.9725C169.677 76.7127 169.397 75.7285 168.837 75.0199C168.277 74.285 167.526 73.9176 166.585 73.9176C165.6 73.9176 164.827 74.285 164.267 75.0199C163.707 75.7285 163.427 76.7127 163.427 77.9725V89.8223H156.841V67.7368H163.427V70.8863C164.009 69.8889 164.793 69.0884 165.779 68.4848C166.765 67.8549 167.896 67.54 169.173 67.54Z" fill="black"/>
<path d="M187.908 90.0979C186.205 90.0979 184.682 89.7698 183.338 89.1137C182.016 88.4313 180.963 87.5127 180.179 86.3579C179.418 85.1769 178.992 83.8515 178.902 82.3817H185.287C185.376 83.0904 185.656 83.6415 186.127 84.0352C186.597 84.4289 187.18 84.6257 187.874 84.6257C188.412 84.6257 188.838 84.4945 189.151 84.232C189.465 83.9696 189.622 83.6284 189.622 83.2085C189.622 82.6573 189.364 82.2505 188.849 81.9881C188.334 81.7256 187.482 81.4369 186.295 81.122C184.951 80.807 183.831 80.4527 182.935 80.059C182.039 79.6653 181.255 79.0223 180.583 78.13C179.933 77.2376 179.608 76.0304 179.608 74.5081C179.608 73.1958 179.91 72.0148 180.515 70.965C181.12 69.8889 182.005 69.0359 183.17 68.4061C184.357 67.7762 185.78 67.4612 187.437 67.4612C189.902 67.4612 191.839 68.1699 193.251 69.5871C194.662 71.0044 195.48 72.8678 195.704 75.1774H189.756C189.644 74.4688 189.375 73.9307 188.95 73.5633C188.546 73.1696 187.997 72.9728 187.303 72.9728C186.765 72.9728 186.351 73.0909 186.06 73.3271C185.791 73.5633 185.657 73.8914 185.657 74.3113C185.657 74.8362 185.914 75.243 186.429 75.5317C186.945 75.7941 187.773 76.0697 188.916 76.3584C190.282 76.6996 191.414 77.0802 192.31 77.5001C193.228 77.92 194.024 78.6024 194.696 79.5472C195.39 80.4658 195.737 81.7256 195.737 83.3266C195.737 84.6126 195.412 85.7674 194.763 86.791C194.136 87.8145 193.228 88.6282 192.041 89.2318C190.876 89.8092 189.498 90.0979 187.908 90.0979Z" fill="black"/>
<path d="M12.2812 5.13947C15.1211 5.13947 17.6029 5.81201 19.7265 7.15709C21.8756 8.47227 23.5259 10.3255 24.6772 12.7167C25.8285 15.108 26.4042 17.843 26.4042 20.9217C26.4042 23.9706 25.8158 26.6906 24.6388 29.0818C23.4875 31.4731 21.8373 33.3562 19.6881 34.7312C17.5645 36.0763 15.0955 36.7488 12.2812 36.7488H1.57373V5.13947H12.2812ZM11.7055 28.9922C13.9058 28.9922 15.6328 28.2897 16.8865 26.8849C18.1402 25.48 18.767 23.4923 18.767 20.9217C18.767 18.3212 18.1402 16.3186 16.8865 14.9137C15.6328 13.479 13.9058 12.7616 11.7055 12.7616H9.09579V28.9922H11.7055Z" fill="black"/>
<path d="M33.5944 9.26437C32.2639 9.26437 31.1894 8.8459 30.3706 8.00897C29.5775 7.14214 29.1809 6.06608 29.1809 4.78078C29.1809 3.4656 29.5775 2.37459 30.3706 1.50776C31.1894 0.640934 32.2639 0.20752 33.5944 0.20752C34.8992 0.20752 35.9482 0.640934 36.7414 1.50776C37.5601 2.37459 37.9695 3.4656 37.9695 4.78078C37.9695 6.06608 37.5601 7.14214 36.7414 8.00897C35.9482 8.8459 34.8992 9.26437 33.5944 9.26437ZM37.317 11.5958V36.7488H29.795V11.5958H37.317Z" fill="black"/>
<path d="M50.773 37.0626C48.8285 37.0626 47.0887 36.689 45.5536 35.9417C44.0441 35.1646 42.8415 34.1184 41.9461 32.8032C41.0762 31.4582 40.59 29.9487 40.4877 28.2748H47.7795C47.8818 29.0818 48.2017 29.7096 48.7389 30.1579C49.2762 30.6063 49.9415 30.8305 50.7346 30.8305C51.3486 30.8305 51.8348 30.681 52.193 30.3821C52.5511 30.0832 52.7302 29.6946 52.7302 29.2164C52.7302 28.5887 52.436 28.1253 51.8476 27.8264C51.2591 27.5275 50.2869 27.1987 48.9308 26.8401C47.3957 26.4814 46.1165 26.0778 45.093 25.6295C44.0696 25.1811 43.1742 24.4488 42.4066 23.4325C41.6646 22.4162 41.2936 21.0413 41.2936 19.3076C41.2936 17.8131 41.639 16.468 42.3298 15.2724C43.0206 14.0469 44.0313 13.0754 45.3617 12.3581C46.7177 11.6407 48.3424 11.282 50.2357 11.282C53.0501 11.282 55.2632 12.089 56.8751 13.7031C58.4869 15.3172 59.4208 17.4395 59.6766 20.0698H52.8838C52.7558 19.2628 52.4488 18.65 51.9627 18.2316C51.5022 17.7832 50.8753 17.559 50.0822 17.559C49.4681 17.559 48.9948 17.6935 48.6622 17.9625C48.3552 18.2316 48.2017 18.6052 48.2017 19.0834C48.2017 19.6813 48.4959 20.1446 49.0843 20.4734C49.6728 20.7723 50.6195 21.0861 51.9243 21.4149C53.485 21.8035 54.7771 22.2369 55.8005 22.7152C56.8495 23.1934 57.7578 23.9706 58.5253 25.0466C59.3185 26.0928 59.715 27.5275 59.715 29.3509C59.715 30.8155 59.344 32.1307 58.6021 33.2964C57.8857 34.4622 56.8495 35.3888 55.4935 36.0763C54.163 36.7338 52.5895 37.0626 50.773 37.0626Z" fill="black"/>
<path d="M62.185 24.1499C62.185 21.5494 62.6455 19.2777 63.5666 17.3348C64.4877 15.3919 65.7669 13.8974 67.4044 12.8512C69.0674 11.8051 70.9607 11.282 73.0843 11.282C75.8219 11.282 78.1246 12.1638 79.9923 13.9273C81.8601 15.661 83.0626 18.0971 83.5999 21.2356H75.6173C75.1567 19.5916 74.2612 18.7696 72.9308 18.7696C71.9841 18.7696 71.2294 19.2329 70.6665 20.1595C70.1292 21.0562 69.8606 22.3864 69.8606 24.1499C69.8606 25.9134 70.1292 27.2585 70.6665 28.1851C71.2294 29.1117 71.9841 29.575 72.9308 29.575C74.2868 29.575 75.1823 28.7531 75.6173 27.1091H83.5999C83.0626 30.2177 81.8601 32.6538 79.9923 34.4173C78.1246 36.1809 75.8219 37.0626 73.0843 37.0626C70.9607 37.0626 69.0674 36.5396 67.4044 35.4934C65.7669 34.4472 64.4877 32.9527 63.5666 31.0098C62.6455 29.0669 62.185 26.7803 62.185 24.1499Z" fill="black"/>
<path d="M96.7413 37.0626C94.5921 37.0626 92.6604 36.5396 90.9462 35.4934C89.2576 34.4472 87.9272 32.9527 86.9549 31.0098C85.9827 29.0669 85.4966 26.7803 85.4966 24.1499C85.4966 21.5494 85.9827 19.2777 86.9549 17.3348C87.9527 15.3919 89.296 13.8974 90.9846 12.8512C92.6988 11.8051 94.6305 11.282 96.7797 11.282C98.9288 11.282 100.848 11.8051 102.536 12.8512C104.251 13.8974 105.594 15.3919 106.566 17.3348C107.564 19.2777 108.063 21.5494 108.063 24.1499C108.063 26.7504 107.564 29.037 106.566 31.0098C105.594 32.9527 104.251 34.4472 102.536 35.4934C100.822 36.5396 98.8904 37.0626 96.7413 37.0626ZM96.7413 29.4405C97.7903 29.4405 98.6602 28.9922 99.351 28.0955C100.067 27.1689 100.426 25.8537 100.426 24.1499C100.426 22.4461 100.067 21.1459 99.351 20.2492C98.6602 19.3525 97.8031 18.9041 96.7797 18.9041C95.7563 18.9041 94.8991 19.3525 94.2083 20.2492C93.5175 21.1459 93.1721 22.4461 93.1721 24.1499C93.1721 25.8836 93.5047 27.1987 94.17 28.0955C94.8352 28.9922 95.6923 29.4405 96.7413 29.4405Z" fill="black"/>
<path d="M121.447 28.4541L125.476 11.5958H133.497L126.09 36.7488H116.726L109.319 11.5958H117.34L121.447 28.4541Z" fill="black"/>
<path d="M156.617 23.8809C156.617 24.5684 156.578 25.2559 156.502 25.9433H142.263C142.34 27.3183 142.66 28.3495 143.223 29.037C143.811 29.6946 144.553 30.0234 145.449 30.0234C146.702 30.0234 147.598 29.3658 148.135 28.0506H156.156C155.824 29.7843 155.171 31.3386 154.199 32.7136C153.252 34.0586 152.05 35.1198 150.591 35.8969C149.133 36.6741 147.521 37.0626 145.756 37.0626C143.632 37.0626 141.739 36.5396 140.076 35.4934C138.438 34.4472 137.146 32.9527 136.2 31.0098C135.279 29.0669 134.818 26.7803 134.818 24.1499C134.818 21.5195 135.279 19.2478 136.2 17.3348C137.121 15.3919 138.4 13.8974 140.038 12.8512C141.701 11.8051 143.607 11.282 145.756 11.282C147.879 11.282 149.76 11.7901 151.397 12.8064C153.035 13.8227 154.314 15.2873 155.235 17.2003C156.156 19.0834 156.617 21.3103 156.617 23.8809ZM148.941 21.6839C148.941 20.6079 148.634 19.7709 148.02 19.1731C147.406 18.5454 146.639 18.2316 145.717 18.2316C144.796 18.2316 144.042 18.5305 143.453 19.1283C142.865 19.6962 142.481 20.5481 142.302 21.6839H148.941Z" fill="black"/>
<path d="M167.217 16.0346C168.061 14.5998 169.085 13.464 170.287 12.6271C171.49 11.7901 172.782 11.3717 174.164 11.3717V20.7424H172.053C170.415 20.7424 169.2 21.116 168.407 21.8633C167.614 22.6105 167.217 23.9108 167.217 25.764V36.7488H159.695V11.5958H167.217V16.0346Z" fill="black"/>
<path d="M204.29 41.2387L198.821 29.4217H198V41.2387H190.344V9.19629H202.415C204.628 9.19629 206.503 9.65079 208.04 10.5598C209.577 11.4385 210.735 12.6657 211.517 14.2413C212.298 15.7866 212.689 17.5288 212.689 19.4681C212.689 21.6497 212.168 23.5737 211.126 25.2402C210.11 26.8764 208.613 28.043 206.634 28.7399L212.845 41.2387H204.29ZM198 23.3313H201.79C202.831 23.3313 203.613 23.0435 204.134 22.4678C204.654 21.8921 204.915 21.0588 204.915 19.968C204.915 18.9378 204.641 18.1348 204.094 17.5591C203.574 16.9531 202.805 16.6501 201.79 16.6501H198V23.3313Z" fill="#BC3748" fill-opacity="0.75"/>
<path d="M214.921 28.4672C214.921 25.8311 215.324 23.5283 216.132 21.5588C216.965 19.5893 218.085 18.0742 219.491 17.0137C220.923 15.9532 222.512 15.423 224.257 15.423C225.767 15.423 227.07 15.7714 228.163 16.4683C229.257 17.1652 230.104 18.1045 230.703 19.2863V15.7411H238.359V41.2387H230.703V37.6936C230.104 38.8753 229.244 39.8146 228.124 40.5115C227.031 41.2084 225.741 41.5569 224.257 41.5569C222.512 41.5569 220.923 41.0266 219.491 39.9661C218.085 38.9056 216.965 37.3906 216.132 35.4211C215.324 33.4213 214.921 31.1033 214.921 28.4672ZM230.703 28.4672C230.703 26.831 230.312 25.5432 229.531 24.6039C228.775 23.6646 227.838 23.195 226.718 23.195C225.572 23.195 224.622 23.6646 223.866 24.6039C223.111 25.5129 222.733 26.8007 222.733 28.4672C222.733 30.1034 223.111 31.4063 223.866 32.3759C224.622 33.3152 225.572 33.7849 226.718 33.7849C227.838 33.7849 228.775 33.3152 229.531 32.3759C230.312 31.4366 230.703 30.1337 230.703 28.4672Z" fill="#BC3748" fill-opacity="0.75"/>
<path d="M250.379 20.2407C251.238 18.7863 252.28 17.6349 253.504 16.7865C254.728 15.9381 256.043 15.5139 257.45 15.5139V25.013H255.301C253.634 25.013 252.397 25.3917 251.59 26.1492C250.783 26.9067 250.379 28.2248 250.379 30.1034V41.2387H242.722V15.7411H250.379V20.2407Z" fill="#BC3748" fill-opacity="0.75"/>
<path d="M281.133 28.1945C281.133 28.8914 281.094 29.5883 281.016 30.2852H266.523C266.601 31.679 266.927 32.7244 267.5 33.4213C268.099 34.0879 268.854 34.4212 269.765 34.4212C271.041 34.4212 271.953 33.7546 272.5 32.4214H280.664C280.326 34.1788 279.662 35.7544 278.672 37.1482C277.709 38.5117 276.485 39.5874 275 40.3752C273.516 41.163 271.875 41.5569 270.078 41.5569C267.916 41.5569 265.989 41.0266 264.296 39.9661C262.63 38.9056 261.314 37.3906 260.351 35.4211C259.413 33.4516 258.945 31.1336 258.945 28.4672C258.945 25.8008 259.413 23.498 260.351 21.5588C261.288 19.5893 262.591 18.0742 264.257 17.0137C265.95 15.9532 267.89 15.423 270.078 15.423C272.239 15.423 274.154 15.9381 275.82 16.9683C277.487 17.9985 278.789 19.4832 279.727 21.4224C280.664 23.3313 281.133 25.5887 281.133 28.1945ZM273.32 25.9674C273.32 24.8766 273.008 24.0282 272.383 23.4222C271.758 22.7859 270.976 22.4678 270.039 22.4678C269.101 22.4678 268.333 22.7708 267.734 23.3768C267.135 23.9525 266.744 24.816 266.562 25.9674H273.32Z" fill="#BC3748" fill-opacity="0.75"/>
<path d="M201.593 37.6342L196.124 25.4888H195.304V37.6342H187.647V4.70166H199.718C201.932 4.70166 203.807 5.16879 205.343 6.10305C206.88 7.00616 208.039 8.2674 208.82 9.88678C209.601 11.475 209.992 13.2657 209.992 15.2587C209.992 17.501 209.471 19.4785 208.429 21.1913C207.414 22.8729 205.916 24.0719 203.937 24.7882L210.148 37.6342H201.593ZM195.304 19.2293H199.093C200.135 19.2293 200.916 18.9335 201.437 18.3418C201.958 17.7501 202.218 16.8937 202.218 15.7726C202.218 14.7138 201.945 13.8885 201.398 13.2968C200.877 12.674 200.109 12.3626 199.093 12.3626H195.304V19.2293Z" stroke="black" stroke-width="2.24726"/>
<path d="M212.224 24.5079C212.224 21.7985 212.627 19.4318 213.435 17.4075C214.268 15.3833 215.388 13.8262 216.794 12.7363C218.227 11.6463 219.815 11.1013 221.56 11.1013C223.071 11.1013 224.373 11.4594 225.467 12.1757C226.56 12.892 227.407 13.8574 228.006 15.0719V11.4283H235.663V37.6342H228.006V33.9906C227.407 35.2051 226.547 36.1705 225.428 36.8868C224.334 37.603 223.045 37.9612 221.56 37.9612C219.815 37.9612 218.227 37.4162 216.794 36.3262C215.388 35.2363 214.268 33.6792 213.435 31.6549C212.627 29.5996 212.224 27.2172 212.224 24.5079ZM228.006 24.5079C228.006 22.8262 227.615 21.5027 226.834 20.5373C226.079 19.5719 225.141 19.0892 224.021 19.0892C222.875 19.0892 221.925 19.5719 221.17 20.5373C220.414 21.4715 220.037 22.7951 220.037 24.5079C220.037 26.1895 220.414 27.5286 221.17 28.5252C221.925 29.4906 222.875 29.9733 224.021 29.9733C225.141 29.9733 226.079 29.4906 226.834 28.5252C227.615 27.5598 228.006 26.2207 228.006 24.5079Z" stroke="black" stroke-width="2.24726"/>
<path d="M247.682 16.0529C248.542 14.5581 249.583 13.3747 250.807 12.5027C252.031 11.6307 253.347 11.1947 254.753 11.1947V20.9577H252.604C250.938 20.9577 249.701 21.347 248.893 22.1255C248.086 22.9041 247.682 24.2587 247.682 26.1895V37.6342H240.026V11.4283H247.682V16.0529Z" stroke="black" stroke-width="2.24726"/>
<path d="M278.436 24.2276C278.436 24.9439 278.397 25.6601 278.319 26.3764H263.826C263.904 27.8089 264.23 28.8833 264.803 29.5996C265.402 30.2847 266.157 30.6273 267.069 30.6273C268.345 30.6273 269.256 29.9421 269.803 28.5719H277.968C277.629 30.3781 276.965 31.9975 275.975 33.43C275.012 34.8314 273.788 35.9369 272.303 36.7466C270.819 37.5563 269.178 37.9612 267.381 37.9612C265.22 37.9612 263.292 37.4162 261.6 36.3262C259.933 35.2363 258.618 33.6792 257.654 31.6549C256.717 29.6307 256.248 27.2484 256.248 24.5079C256.248 21.7674 256.717 19.4006 257.654 17.4075C258.592 15.3833 259.894 13.8262 261.561 12.7363C263.253 11.6463 265.194 11.1013 267.381 11.1013C269.543 11.1013 271.457 11.6307 273.124 12.6895C274.79 13.7484 276.093 15.2743 277.03 17.2674C277.968 19.2293 278.436 21.5494 278.436 24.2276ZM270.623 21.9387C270.623 20.8176 270.311 19.9456 269.686 19.3228C269.061 18.6688 268.28 18.3418 267.342 18.3418C266.405 18.3418 265.636 18.6532 265.037 19.2761C264.438 19.8677 264.048 20.7553 263.865 21.9387H270.623Z" stroke="black" stroke-width="2.24726"/>
<path d="M33.3688 153.516H24.9048L13.6339 133.647V153.516H5.16992V117.964H13.6339L24.9048 138.085V117.964H33.3688V153.516Z" fill="#BC3748" fill-opacity="0.75"/>
<path d="M58.8319 117.964V125.831H46.6541V132.084H55.6363V139.598H46.6541V153.516H38.1901V117.964H58.8319Z" fill="#BC3748" fill-opacity="0.75"/>
<path d="M85.327 117.964V125.831H77.2085V153.516H68.7445V125.831H60.7124V117.964H85.327Z" fill="#BC3748" fill-opacity="0.75"/>
<path d="M98.7793 153.869C96.5914 153.869 94.6337 153.449 92.9064 152.609C91.2078 151.735 89.8547 150.558 88.8471 149.079C87.8683 147.566 87.3213 145.868 87.2062 143.985H95.411C95.5262 144.893 95.886 145.599 96.4906 146.103C97.0952 146.608 97.8437 146.86 98.7362 146.86C99.4271 146.86 99.9741 146.692 100.377 146.355C100.78 146.019 100.982 145.582 100.982 145.044C100.982 144.338 100.651 143.817 99.9885 143.481C99.3263 143.145 98.2323 142.775 96.7065 142.371C94.9792 141.968 93.5397 141.514 92.3882 141.01C91.2366 140.506 90.229 139.682 89.3653 138.539C88.5304 137.396 88.113 135.849 88.113 133.899C88.113 132.218 88.5017 130.705 89.279 129.361C90.0563 127.982 91.1934 126.89 92.6905 126.083C94.2163 125.276 96.0444 124.872 98.1748 124.872C101.342 124.872 103.832 125.78 105.646 127.596C107.459 129.411 108.51 131.798 108.798 134.757H101.154C101.01 133.849 100.665 133.16 100.118 132.689C99.5998 132.185 98.8945 131.933 98.002 131.933C97.3111 131.933 96.7785 132.084 96.4042 132.386C96.0588 132.689 95.886 133.109 95.886 133.647C95.886 134.32 96.2171 134.841 96.8793 135.211C97.5414 135.547 98.6066 135.9 100.075 136.27C101.831 136.707 103.285 137.194 104.436 137.732C105.617 138.27 106.639 139.144 107.502 140.354C108.395 141.531 108.841 143.145 108.841 145.196C108.841 146.843 108.424 148.322 107.589 149.633C106.783 150.944 105.617 151.987 104.091 152.76C102.594 153.5 100.823 153.869 98.7793 153.869Z" fill="#BC3748" fill-opacity="0.75"/>
<path d="M117.105 153.92C115.608 153.92 114.399 153.449 113.477 152.508C112.585 151.533 112.139 150.306 112.139 148.826C112.139 147.347 112.585 146.12 113.477 145.145C114.399 144.17 115.608 143.683 117.105 143.683C118.573 143.683 119.753 144.17 120.646 145.145C121.567 146.12 122.028 147.347 122.028 148.826C122.028 150.272 121.567 151.482 120.646 152.457C119.753 153.432 118.573 153.92 117.105 153.92Z" fill="#BC3748" fill-opacity="0.75"/>
<path d="M29.7731 149.022H21.3091L10.0382 129.153V149.022H1.57422V113.469H10.0382L21.3091 133.591V113.469H29.7731V149.022Z" stroke="black" stroke-width="2.24726"/>
<path d="M55.2362 113.469V121.336H43.0584V127.589H52.0406V135.103H43.0584V149.022H34.5944V113.469H55.2362Z" stroke="black" stroke-width="2.24726"/>
<path d="M81.7313 113.469V121.336H73.6128V149.022H65.1488V121.336H57.1167V113.469H81.7313Z" stroke="black" stroke-width="2.24726"/>
<path d="M95.1836 149.375C92.9957 149.375 91.038 148.955 89.3107 148.114C87.6121 147.24 86.259 146.063 85.2514 144.584C84.2726 143.071 83.7256 141.374 83.6105 139.491H91.8153C91.9305 140.399 92.2903 141.105 92.8949 141.609C93.4995 142.113 94.248 142.365 95.1405 142.365C95.8314 142.365 96.3784 142.197 96.7814 141.861C97.1845 141.525 97.386 141.088 97.386 140.55C97.386 139.844 97.0549 139.323 96.3928 138.987C95.7306 138.65 94.6366 138.281 93.1108 137.877C91.3835 137.474 89.944 137.02 88.7925 136.515C87.6409 136.011 86.6333 135.188 85.7696 134.044C84.9347 132.901 84.5173 131.355 84.5173 129.405C84.5173 127.724 84.906 126.211 85.6833 124.866C86.4606 123.488 87.5977 122.395 89.0948 121.588C90.6206 120.782 92.4487 120.378 94.5791 120.378C97.7459 120.378 100.236 121.286 102.05 123.101C103.864 124.917 104.914 127.304 105.202 130.262H97.5587C97.4148 129.355 97.0693 128.665 96.5223 128.195C96.0041 127.69 95.2988 127.438 94.4063 127.438C93.7154 127.438 93.1828 127.589 92.8085 127.892C92.4631 128.195 92.2903 128.615 92.2903 129.153C92.2903 129.825 92.6214 130.346 93.2836 130.716C93.9457 131.052 95.0109 131.405 96.4791 131.775C98.2353 132.212 99.6891 132.7 100.841 133.238C102.021 133.776 103.043 134.65 103.907 135.86C104.799 137.037 105.245 138.65 105.245 140.701C105.245 142.349 104.828 143.828 103.993 145.139C103.187 146.45 102.021 147.492 100.495 148.266C98.9982 149.005 97.2276 149.375 95.1836 149.375Z" stroke="black" stroke-width="2.24726"/>
<path d="M113.509 149.425C112.012 149.425 110.803 148.955 109.882 148.013C108.989 147.038 108.543 145.811 108.543 144.332C108.543 142.853 108.989 141.626 109.882 140.651C110.803 139.676 112.012 139.188 113.509 139.188C114.977 139.188 116.158 139.676 117.05 140.651C117.971 141.626 118.432 142.853 118.432 144.332C118.432 145.778 117.971 146.988 117.05 147.963C116.158 148.938 114.977 149.425 113.509 149.425Z" stroke="black" stroke-width="2.24726"/>
</svg>
